<svg xmlns="http://www.w3.org/2000/svg" width="73.243" height="68.966" viewBox="0 0 73.243 68.966">
  <g id="Group_2" data-name="Group 2" transform="translate(-55.431 -55.227)">
    <g id="Group_1" data-name="Group 1" transform="translate(57.131 56.927)">
      <path id="Path_1" data-name="Path 1" d="M98.317,89.032a17.184,17.184,0,0,0-4.632,12.115c0,9.622-3.92,10.69-10.334,10.69" transform="translate(-48.429 -46.271)" fill="none" stroke="#6cc57c" stroke-miterlimit="10" stroke-width="3.4"/>
      <path id="Path_2" data-name="Path 2" d="M96.179,81.006S91.9,85.994,83.35,85.994" transform="translate(-48.429 -48.935)" fill="none" stroke="#6cc57c" stroke-miterlimit="10" stroke-width="3.4"/>
      <path id="Path_3" data-name="Path 3" d="M100.371,91.521s-8.909.356-11.4-7.84" transform="translate(-46.564 -48.047)" fill="none" stroke="#6cc57c" stroke-miterlimit="10" stroke-width="3.4"/>
      <path id="Path_4" data-name="Path 4" d="M94.481,108.837a8,8,0,0,0,11.931-9.957,10.7,10.7,0,0,0,1.348.1,10.512,10.512,0,0,0,10.511-10.513c0-6.473-3.92-10.156-7.721-10.987a11.761,11.761,0,0,0-5.582,0,17.035,17.035,0,0,0,1.188-5.226,9.24,9.24,0,0,0-13.527-8.21,9.618,9.618,0,0,0-9.279-7.112" transform="translate(-48.429 -56.927)" fill="none" stroke="#6cc57c" stroke-miterlimit="10" stroke-width="3.4"/>
      <path id="Path_5" data-name="Path 5" d="M72.114,89.032a17.184,17.184,0,0,1,4.632,12.115c0,9.622,3.92,10.69,10.333,10.69" transform="translate(-52.158 -46.271)" fill="none" stroke="#6cc57c" stroke-miterlimit="10" stroke-width="3.4"/>
      <path id="Path_6" data-name="Path 6" d="M73.719,81.006s4.275,4.988,12.828,4.988" transform="translate(-51.625 -48.935)" fill="none" stroke="#6cc57c" stroke-miterlimit="10" stroke-width="3.4"/>
      <path id="Path_7" data-name="Path 7" d="M69.171,91.521s8.908.356,11.4-7.84" transform="translate(-53.135 -48.047)" fill="none" stroke="#6cc57c" stroke-miterlimit="10" stroke-width="3.4"/>
      <path id="Path_8" data-name="Path 8" d="M80.922,108.837a8,8,0,0,1-11.93-9.957,10.7,10.7,0,0,1-1.348.1A10.513,10.513,0,0,1,57.131,88.463c0-6.473,3.92-10.156,7.721-10.987a11.766,11.766,0,0,1,5.583,0,17.035,17.035,0,0,1-1.188-5.226,9.239,9.239,0,0,1,13.526-8.21,9.618,9.618,0,0,1,9.279-7.112" transform="translate(-57.131 -56.927)" fill="none" stroke="#6cc57c" stroke-miterlimit="10" stroke-width="3.4"/>
      <line id="Line_1" data-name="Line 1" y2="8.849" transform="translate(30.052 36.465)" fill="none" stroke="#6cc57c" stroke-miterlimit="10" stroke-width="3.4"/>
      <line id="Line_2" data-name="Line 2" y2="11.165" transform="translate(34.803 37.119)" fill="none" stroke="#6cc57c" stroke-miterlimit="10" stroke-width="3.4"/>
      <line id="Line_3" data-name="Line 3" y2="8.374" transform="translate(39.732 36.762)" fill="none" stroke="#6cc57c" stroke-miterlimit="10" stroke-width="3.4"/>
    </g>
    <path id="Path_9" data-name="Path 9" d="M82.632,69.608a4.99,4.99,0,0,0-8.636,5" transform="translate(5.375 3.383)" fill="none" stroke="#6cc57c" stroke-miterlimit="10" stroke-width="3.4"/>
    <path id="Path_10" data-name="Path 10" d="M95.521,79.577a2.4,2.4,0,0,0-1.835-4.25,2.373,2.373,0,0,0-1.141.493" transform="translate(11.754 6.099)" fill="none" stroke="#6cc57c" stroke-miterlimit="10" stroke-width="3.4"/>
  </g>
</svg>
