<svg xmlns="http://www.w3.org/2000/svg" xmlns:xlink="http://www.w3.org/1999/xlink" width="475" height="268" viewBox="0 0 475 268">
  <defs>
    <filter id="Rectangle_32" x="21" y="0" width="454" height="252" filterUnits="userSpaceOnUse">
      <feOffset dy="10" input="SourceAlpha"/>
      <feGaussianBlur stdDeviation="10" result="blur"/>
      <feFlood flood-color="#19166d" flood-opacity="0.071"/>
      <feComposite operator="in" in2="blur"/>
      <feComposite in="SourceGraphic"/>
    </filter>
    <filter id="Ellipse_12" x="0" y="132" width="136" height="136" filterUnits="userSpaceOnUse">
      <feOffset dy="5" input="SourceAlpha"/>
      <feGaussianBlur stdDeviation="15" result="blur-2"/>
      <feFlood flood-color="#081551" flood-opacity="0.31"/>
      <feComposite operator="in" in2="blur-2"/>
      <feComposite in="SourceGraphic"/>
    </filter>
    <filter id="arrow-right-solid" x="51.126" y="181.863" width="34.002" height="33.597" filterUnits="userSpaceOnUse">
      <feOffset dy="3" input="SourceAlpha"/>
      <feGaussianBlur stdDeviation="3" result="blur-3"/>
      <feFlood flood-color="#fff" flood-opacity="0.588"/>
      <feComposite operator="in" in2="blur-3"/>
      <feComposite in="SourceGraphic"/>
    </filter>
  </defs>
  <g id="Group_16127" data-name="Group 16127" transform="translate(44.726 20)">
    <g id="Group_16126" data-name="Group 16126">
      <g transform="matrix(1, 0, 0, 1, -44.73, -20)" filter="url(#Rectangle_32)">
        <rect id="Rectangle_32-2" data-name="Rectangle 32" width="394" height="192" rx="10" transform="translate(51 20)" fill="#fff"/>
      </g>
      <g id="Pie_Chart" data-name="Pie Chart" transform="translate(309 70)">
        <text id="_520_Kcal" data-name="520 Kcal" transform="translate(15.274 14)" fill="#23233c" font-size="15" font-family="SegoeUI-Bold, Segoe UI" font-weight="700"><tspan x="-15.011" y="0">520 </tspan><tspan x="-14.561" y="16">Kcal</tspan></text>
      </g>
      <g id="Group_16108" data-name="Group 16108" transform="translate(282.536 49.473)">
        <path id="Path_1942" data-name="Path 1942" d="M40.989-60.022A40.989,40.989,0,0,1,0-101.011,40.989,40.989,0,0,1,40.989-142a40.989,40.989,0,0,1,40.989,40.989A40.989,40.989,0,0,1,40.989-60.022Zm0-5.773a35.216,35.216,0,0,0,35.216-35.216,35.216,35.216,0,0,0-35.216-35.216A35.216,35.216,0,0,0,5.773-101.011,35.216,35.216,0,0,0,40.989-65.795Z" transform="translate(0 142)" fill="#dcebf5" fill-rule="evenodd"/>
        <path id="Intersection_1" data-name="Intersection 1" d="M45.368,70.744A35.218,35.218,0,1,0,3.453,14.382L0,9.738A40.992,40.992,0,1,1,48.822,75.389Z" transform="translate(14.465 0)" fill="#6cc57c"/>
      </g>
      <text id="Results_of_the_week" data-name="Results of the week" transform="translate(137.274 63)" fill="#23233c" font-size="20" font-family="SegoeUI-Bold, Segoe UI" font-weight="700"><tspan x="-91.001" y="0">Results of the week</tspan></text>
      <g id="Group_16109" data-name="Group 16109" transform="translate(0 152)">
        <g transform="matrix(1, 0, 0, 1, -44.73, -172)" filter="url(#Ellipse_12)">
          <circle id="Ellipse_12-2" data-name="Ellipse 12" cx="23" cy="23" r="23" transform="translate(45 172)" fill="#fff"/>
        </g>
        <g transform="matrix(1, 0, 0, 1, -44.73, -172)" filter="url(#arrow-right-solid)">
          <path id="arrow-right-solid-2" data-name="arrow-right-solid" d="M6.8,38.695,7.6,37.9a.854.854,0,0,1,1.211,0l6.943,6.94a.854.854,0,0,1,0,1.211L8.807,53A.854.854,0,0,1,7.6,53L6.8,52.2a.858.858,0,0,1,.014-1.225l4.3-4.1H.857A.855.855,0,0,1,0,46.02V44.877a.855.855,0,0,1,.857-.857H11.122l-4.3-4.1A.852.852,0,0,1,6.8,38.695Z" transform="translate(60.13 150.21)" fill="#404040"/>
        </g>
      </g>
      <text id="_-4kg" data-name="-4kg" transform="translate(65.274 117)" fill="#6cc57c" font-size="19" font-family="SegoeUI-Bold, Segoe UI" font-weight="700"><tspan x="-20.364" y="0">-4kg</tspan></text>
      <text id="Level_8" data-name="Level 8" transform="translate(180.274 117)" fill="#6cc57c" font-size="19" font-family="SegoeUI-Bold, Segoe UI" font-weight="700"><tspan x="-30.977" y="0">Level 8</tspan></text>
      <text id="you_have_lost" data-name="you have lost" transform="translate(72.274 91)" fill="#23233c" font-size="10" font-family="SegoeUI, Segoe UI"><tspan x="-29.258" y="0">you have lost</tspan></text>
      <text id="you_level_up_" data-name="you level up
" transform="translate(175.274 91)" fill="#23233c" font-size="10" font-family="SegoeUI, Segoe UI"><tspan x="-26.733" y="0">you level up</tspan><tspan font-family="GoogleSans-Regular, Google Sans"><tspan x="0" y="15"></tspan></tspan></text>
      <text id="Never_give_up_know_more" data-name="Never give up, know more" transform="translate(303.274 172)" fill="#23233c" font-size="10" font-family="SegoeUI, Segoe UI"><tspan x="-58.047" y="0">Never give up,</tspan><tspan y="0" xml:space="preserve" fill="#6cc57c"> know more</tspan></text>
      <circle id="Ellipse_55" data-name="Ellipse 55" cx="2.5" cy="2.5" r="2.5" transform="translate(357.274 21)" fill="#7f8da0"/>
      <circle id="Ellipse_56" data-name="Ellipse 56" cx="2.5" cy="2.5" r="2.5" transform="translate(366.274 21)" fill="#7f8da0"/>
    </g>
  </g>
</svg>
