<svg xmlns="http://www.w3.org/2000/svg" width="43.928" height="41.385" viewBox="0 0 43.928 41.385">
  <g id="Group_16138" data-name="Group 16138" transform="translate(1.2 1.2)">
    <g id="Group_1" data-name="Group 1" transform="translate(0)">
      <path id="Path_1" data-name="Path 1" d="M92.249,89.032a10.217,10.217,0,0,0-2.754,7.2c0,5.721-2.331,6.356-6.145,6.356" transform="translate(-62.586 -63.607)" fill="none" stroke="#6cc57c" stroke-miterlimit="10" stroke-width="2.4"/>
      <path id="Path_2" data-name="Path 2" d="M90.978,81.006a10.33,10.33,0,0,1-7.628,2.966" transform="translate(-62.586 -61.937)" fill="none" stroke="#6cc57c" stroke-miterlimit="10" stroke-width="2.4"/>
      <path id="Path_3" data-name="Path 3" d="M95.749,88.342s-5.3.211-6.78-4.661" transform="translate(-63.755 -62.493)" fill="none" stroke="#6cc57c" stroke-miterlimit="10" stroke-width="2.4"/>
      <path id="Path_4" data-name="Path 4" d="M89.968,87.792a4.757,4.757,0,0,0,7.094-5.921,6.361,6.361,0,0,0,.8.057,6.25,6.25,0,0,0,6.25-6.251c0-3.849-2.331-6.039-4.591-6.533a6.993,6.993,0,0,0-3.319,0,10.129,10.129,0,0,0,.706-3.108,5.494,5.494,0,0,0-8.043-4.882,5.719,5.719,0,0,0-5.517-4.229" transform="translate(-62.586 -56.927)" fill="none" stroke="#6cc57c" stroke-miterlimit="10" stroke-width="2.4"/>
      <path id="Path_5" data-name="Path 5" d="M72.114,89.032a10.217,10.217,0,0,1,2.754,7.2c0,5.721,2.331,6.356,6.144,6.356" transform="translate(-60.248 -63.607)" fill="none" stroke="#6cc57c" stroke-miterlimit="10" stroke-width="2.4"/>
      <path id="Path_6" data-name="Path 6" d="M73.719,81.006a10.328,10.328,0,0,0,7.627,2.966" transform="translate(-60.582 -61.937)" fill="none" stroke="#6cc57c" stroke-miterlimit="10" stroke-width="2.4"/>
      <path id="Path_7" data-name="Path 7" d="M69.171,88.342s5.3.211,6.78-4.661" transform="translate(-59.636 -62.493)" fill="none" stroke="#6cc57c" stroke-miterlimit="10" stroke-width="2.4"/>
      <path id="Path_8" data-name="Path 8" d="M71.277,87.792a4.757,4.757,0,0,1-7.093-5.921,6.361,6.361,0,0,1-.8.057,6.251,6.251,0,0,1-6.251-6.251c0-3.849,2.331-6.039,4.591-6.533a7,7,0,0,1,3.32,0,10.129,10.129,0,0,1-.706-3.108,5.493,5.493,0,0,1,8.042-4.882,5.719,5.719,0,0,1,5.517-4.229" transform="translate(-57.131 -56.927)" fill="none" stroke="#6cc57c" stroke-miterlimit="10" stroke-width="2.4"/>
      <line id="Line_1" data-name="Line 1" y2="5.262" transform="translate(17.869 21.682)" fill="none" stroke="#6cc57c" stroke-miterlimit="10" stroke-width="2.4"/>
      <line id="Line_2" data-name="Line 2" y2="6.639" transform="translate(20.694 22.07)" fill="none" stroke="#6cc57c" stroke-miterlimit="10" stroke-width="2.4"/>
      <line id="Line_3" data-name="Line 3" y2="4.979" transform="translate(23.625 21.859)" fill="none" stroke="#6cc57c" stroke-miterlimit="10" stroke-width="2.4"/>
    </g>
    <path id="Path_9" data-name="Path 9" d="M78.859,68.6a2.967,2.967,0,0,0-5.135,2.973" transform="translate(-60.5 -59.048)" fill="none" stroke="#6cc57c" stroke-miterlimit="10" stroke-width="2.4"/>
    <path id="Path_10" data-name="Path 10" d="M94.314,77.843a1.425,1.425,0,0,0-1.091-2.527,1.411,1.411,0,0,0-.679.293" transform="translate(-64.499 -60.75)" fill="none" stroke="#6cc57c" stroke-miterlimit="10" stroke-width="2.4"/>
  </g>
</svg>
